<svg width="12" height="12" viewBox="0 0 12 12" fill="none" xmlns="http://www.w3.org/2000/svg">
<path d="M5.53851 9.50006C4.89952 9.50006 4.27489 9.29479 3.74359 8.91021C3.21229 8.52562 2.7982 7.979 2.55367 7.33946C2.30914 6.69991 2.24516 5.99618 2.36982 5.31725C2.49448 4.63831 2.80218 4.01467 3.25401 3.52519C3.70584 3.03571 4.28151 2.70236 4.90822 2.56731C5.53493 2.43227 6.18453 2.50158 6.77487 2.76648C7.36522 3.03139 7.8698 3.48 8.2248 4.05557C8.5798 4.63114 8.76928 5.30783 8.76928 6.00006C8.7683 6.928 8.4276 7.81762 7.82193 8.47377C7.21625 9.12992 6.39506 9.499 5.53851 9.50006Z" fill="#7DD856"/>
</svg>
