<?xml version="1.0" standalone="no"?>
<!DOCTYPE svg PUBLIC "-//W3C//DTD SVG 20010904//EN"
 "http://www.w3.org/TR/2001/REC-SVG-20010904/DTD/svg10.dtd">
<svg version="1.0" xmlns="http://www.w3.org/2000/svg"
 width="545.000000pt" height="203.000000pt" viewBox="0 0 545.000000 203.000000"
 preserveAspectRatio="xMidYMid meet">

<g transform="translate(0.000000,203.000000) scale(0.100000,-0.100000)"
fill="#000000" stroke="none">
<path d="M2020 1594 c-245 -47 -452 -241 -515 -485 -26 -99 -17 -279 19 -384
l28 -80 -31 -164 c-18 -90 -28 -167 -24 -172 4 -4 84 6 177 22 l170 30 45 -19
c78 -33 152 -46 256 -46 202 0 379 86 507 246 104 129 144 258 136 441 -8 179
-66 309 -192 432 -127 123 -254 176 -436 180 -63 2 -126 1 -140 -1z m243 -109
c189 -40 362 -208 412 -402 19 -74 19 -203 0 -277 -46 -177 -200 -340 -370
-392 -114 -35 -282 -27 -387 18 l-47 20 -138 -25 c-76 -14 -139 -24 -140 -23
-2 2 9 62 24 135 l26 133 -29 87 c-25 75 -29 100 -28 196 0 95 4 120 28 180
33 87 84 163 148 220 138 124 315 170 501 130z"/>
<path d="M376 1545 c-3 -9 -6 -270 -6 -579 0 -451 3 -566 13 -580 13 -17 31
-18 273 -13 287 5 326 11 451 73 121 58 197 148 251 293 34 91 42 283 18 394
-37 164 -128 284 -266 350 -125 59 -193 70 -476 75 -229 4 -252 3 -258 -13z
m532 -213 c82 -32 121 -67 155 -141 27 -58 31 -78 35 -178 5 -128 -8 -214 -43
-284 -53 -103 -167 -159 -327 -159 l-78 0 0 396 0 397 103 -5 c69 -4 119 -12
155 -26z"/>
<path d="M2860 1540 c0 -11 79 -142 176 -290 114 -177 174 -277 170 -287 -4
-9 -85 -136 -181 -283 -96 -147 -175 -276 -175 -288 0 -21 4 -22 113 -22 76 0
118 4 129 12 8 7 68 99 132 203 64 105 122 190 129 190 7 0 67 -87 133 -194
67 -107 129 -198 137 -203 9 -5 76 -7 149 -6 129 3 133 4 131 24 -1 12 -86
149 -189 305 -103 156 -189 290 -191 299 -2 9 71 130 166 274 94 142 171 265
171 272 0 11 -25 14 -124 14 l-124 0 -109 -177 c-60 -98 -116 -179 -124 -181
-9 -1 -47 52 -103 145 -49 82 -100 163 -113 181 l-24 32 -140 0 c-132 0 -139
-1 -139 -20z"/>
<path d="M4416 1519 c-63 -156 -396 -1102 -396 -1123 l0 -26 110 0 c128 0 111
-15 171 152 22 62 45 116 52 120 7 4 101 8 209 8 146 0 199 -3 205 -12 4 -7
28 -69 53 -138 l45 -125 138 -3 c137 -3 137 -3 137 20 0 30 -389 1128 -408
1151 -13 15 -34 17 -157 17 l-143 0 -16 -41z m221 -446 c39 -109 68 -201 66
-205 -2 -5 -69 -8 -149 -8 -125 0 -144 2 -144 16 0 9 27 89 59 177 81 220 79
217 89 217 4 0 40 -89 79 -197z"/>
</g>
</svg>
